<?xml version="1.0" encoding="utf-8"?>
<!-- Generator: Adobe Illustrator 22.1.0, SVG Export Plug-In . SVG Version: 6.00 Build 0)  -->
<svg version="1.1" id="Layer_1" xmlns="http://www.w3.org/2000/svg" xmlns:xlink="http://www.w3.org/1999/xlink" x="0px" y="0px"
	 viewBox="0 0 577.7 577.7" style="enable-background:new 0 0 577.7 577.7;" xml:space="preserve">
<style type="text/css">
	.st0{display:none;}
	.st1{display:inline;}
	.st2{fill:#273040;}
	.st3{fill:#00DCFF;}
	.st4{fill:#C5C5C5;}
	.st5{fill:#FFFFFF;}
	.st6{fill:#FBA42B;}
</style>
<title>Asset 1+logotype</title>
<g id="Layer_2_1_" class="st0">
	<g id="Layer_1-2" class="st1">
		<path class="st2" d="M288.9,572.7C132.1,572.7,5,445.6,5,288.8c0-75.3,29.9-147.5,83.1-200.7C199.7-22.1,379.4-21,489.6,90.5
			c109.3,110.6,109.3,288.5,0,399.1C436.5,543,364.2,572.9,288.9,572.7z"/>
		<path class="st3" d="M288.9,10c154.1,0.1,278.9,125.1,278.8,279.1c-0.1,112-67.1,213-170.2,256.7c-142.2,59.3-305.5-7.9-364.8-150
			c-58.9-141.3,7-303.7,147.7-363.9C214.7,17.4,251.6,9.9,288.9,10 M288.9,0C129.3,0,0,129.3,0,288.9s129.3,288.9,288.9,288.9
			s288.9-129.3,288.9-288.9S448.4,0,288.9,0z"/>
		<path class="st3" d="M532.9,370.3L320.8,192.4c-1.9-1.6-4.3-2.4-6.8-2.4H57c-5.5,0-10,4.5-10,10v39.6c0,5.5,4.5,10,10,10h239.2
			L494.6,416c4.4,3.7,11,3.1,14.7-1.3l24.9-29.7C537.9,380.6,537.3,374,532.9,370.3z"/>
		<path class="st3" d="M203,322.7v88.9c0,5.5-4.1,9.2-9.7,9.2h-40.2c-5.5,0-9.7-3.9-9.7-9.4V286.7c0.2-3.2,2.1-6.1,4.9-7.6
			c3-1.6,6.6-1.3,9.4,0.7l41.2,34.5C202,316.8,203,318.9,203,322.7z"/>
		<path class="st3" d="M353,322.7v88.9c0,5.5-4.1,9.2-9.7,9.2h-40.2c-5.5,0-9.7-3.9-9.7-9.4V286.7c0.2-3.2,2.1-6.1,4.9-7.6
			c3-1.6,6.6-1.3,9.4,0.7l41.2,34.5C352,316.8,353,318.9,353,322.7z"/>
		<path class="st3" d="M442.8,275.3v-75.6c0-5.5,4.1-9.2,9.7-9.2h40.2c5.5,0,9.7,3.9,9.7,9.4v111.4c-0.2,3.2-2.1,6.1-4.9,7.6
			c-3,1.6-6.6,1.3-9.4-0.7l-41.2-34.5C443.8,281.2,442.8,279.1,442.8,275.3z"/>
	</g>
</g>
<g id="iso_1_">
	<g>
		<circle class="st4" cx="289.5" cy="288.5" r="287"/>
		<circle class="st5" cx="289.5" cy="288.5" r="280"/>
	</g>
	<g id="iso">
		<path class="st6" d="M408.9,406.1L408.9,406.1c-0.1,0-0.3,0-0.5,0c-0.5,0-0.9,0-1.4,0c-0.6,0-1.2,0-1.8,0
			c-33.1-2.1-96.1-69.3-123-117.4c0-0.4,0-0.8,0-1.2c0-4.9-0.7-9.7-2.1-14.1c4.5-22.6,32.1-57,53.5-57.2c0.2,0,0.3,0,0.5,0
			c0.1,0,0.1,0,0.2,0c0.1,0,0.3,0,0.4,0l0,0c23.9-0.3,43.2-19.8,43.2-43.7c0-24.2-19.6-43.7-43.7-43.7c-24.2,0-43.7,19.6-43.7,43.7
			c0,2,0.1,3.9,0.4,5.8l0,0c1.8,23.8-8.2,61.1-38.4,64.9c-2.3-0.9-4.6-1.7-7-2.2c-11.7-15.4-22.7-98,3-128.6h0
			c7.4-7.8,12-18.4,12-30c0-24.2-19.6-43.7-43.7-43.7c-24.2,0-43.7,19.6-43.7,43.7c0,11.6,4.6,22.2,12,30h0c0,0,4.2,5.1,7.1,21.6
			c5.5,30.2,8.7,85.2-1.5,134.5c-2.5,5.8-3.9,12.3-3.9,19c0,5.7,1,11.1,2.8,16.1c3.8,31.4,7.6,90-14.6,110.7
			c-0.7,0.6-1.4,1.2-2.1,1.8c-0.1,0.1-0.1,0.1-0.2,0.2c0,0,0,0,0,0C158.6,428.4,150,446.2,150,466c0,36.7,29.8,66.5,66.5,66.5
			S283,502.7,283,466c0-19.3-8.2-36.6-21.3-48.8c-0.2-0.4-0.7-0.8-1.4-1.3c0,0-0.1,0-0.1-0.1c-1.1-0.9-2.2-1.8-3.3-2.7
			c-15.1-14.7-36.9-64.7-17.3-78c4-0.4,7.9-1.4,11.6-2.8c35.2,2.9,102.3,83,102.9,126.7c0,29.3,23.7,53,53,53s53-23.7,53-53
			C460,430.5,437.3,407.2,408.9,406.1"/>
		<g>
			<path class="st5" d="M274.8,287.5c0,22.4-18.1,40.5-40.5,40.5c-22.4,0-40.5-18.1-40.5-40.5c0-22.4,18.1-40.5,40.5-40.5
				C256.7,247,274.8,265.1,274.8,287.5"/>
			<path class="st4" d="M260.2,287.5c0,14.3-11.6,25.9-25.9,25.9s-25.9-11.6-25.9-25.9c0-14.3,11.6-25.9,25.9-25.9
				S260.2,273.2,260.2,287.5"/>
		</g>
	</g>
</g>
</svg>
